<svg xmlns="http://www.w3.org/2000/svg" viewBox="0 0 1519.02 551.41"><defs><style>.cls-1{fill:#202d60;}.cls-2{fill:#fff;}.cls-3{fill:#202e60;}.cls-4{fill:#202e61;}.cls-5{fill:#212f61;}.cls-6{fill:#213062;}.cls-7{fill:#324473;}.cls-8{fill:#7a7889;}.cls-9{fill:#8a8c9f;}.cls-10{fill:#898796;}.cls-11{fill:#aaa7b4;}.cls-12{fill:#eeedef;}.cls-13{fill:#3f517d;}.cls-14{fill:#d8d7df;}.cls-15{fill:#a19eab;}.cls-16{fill:#9392a1;}.cls-17{fill:#d9d9de;}.cls-18{fill:#9e9ba9;}.cls-19{fill:#7a7b8f;}.cls-20{fill:#fefefe;}.cls-21{fill:#fdfdfd;}.cls-22{fill:#fbfbfc;}.cls-23{fill:#f2f2f5;}.cls-24{fill:#fafbfb;}.cls-25{fill:#f3f3f5;}</style></defs><title>Asset 2</title><g id="Layer_2" data-name="Layer 2"><g id="Layer_1-2" data-name="Layer 1"><rect class="cls-1" width="1519.02" height="551.41"/><path class="cls-2" d="M555.35,226a69.65,69.65,0,0,1,16.51-4.76c2.42-.42,2.89-1,1.78-3.3-4.24-8.86-6.82-18.28-8.8-27.87-.84-4.08-.83-4.18,3.26-2.93a199.1,199.1,0,0,1,28,11c2.38,1.15,3.35,1.24,4-1.82a66.07,66.07,0,0,1,6.73-19c9.77,7.27,19.09,14.71,27,23.72,2.14,2.44,3.29,3.88,6,.08,5.71-8.15,6.34-8,12.56-.7,14.13,16.61,29.11,32.33,46.77,45.27.76.56,1.51,1.13,2.31,1.62a7.63,7.63,0,0,0,1.7.39c-1.34-6.39-3.81-12.06-6.06-17.78a302.94,302.94,0,0,0-13.41-28.7c-1.4-2.69-.91-3.45,1.92-3.59,2.27-.12,4.53-.74,6.79-.71,3.26,0,2.86-1.11,1.5-3.21a176.11,176.11,0,0,1-19.21-41.37c-1.51-4.66-1.53-4.5,3.15-4.19a88.4,88.4,0,0,1,19.3,3.78c2.79.83,3.84,1,3.26-2.65-2-12.87-.71-25.69,1.31-38.47.33-2.07,1.22-1.84,2.74-1.21a106.89,106.89,0,0,1,14.36,7.18c2.39,1.44,3.22,1.14,3.07-1.87a143.18,143.18,0,0,1,2.58-32.46c.55-3.07,1.65-4.09,4.59-2.39,2.54,1.48,5.39,2.48,7.79,4.14,3,2,4,.94,5.06-1.94C746,70.41,752.34,59.66,758.79,49a18.77,18.77,0,0,1,1.34-1.72c7,11.47,13.76,22.87,18.15,35.45,1,2.72,2,3.28,4.51,1.67,2.71-1.71,5.67-3,8.54-4.5,2.14-1.09,3.41-1.24,4,1.92A148.3,148.3,0,0,1,798.13,115c0,.85-.79,1.89.37,2.54s1.8-.3,2.55-.75a147.82,147.82,0,0,1,14.31-7.27c1.8-.82,2.63-.5,3,1.48a131.78,131.78,0,0,1,1.47,36.5c-.59,5.4-.75,5.52,4.26,4,6.57-2,13.33-2.9,20.12-3.77,3.25-.42,2.05,1.63,1.63,3a177.5,177.5,0,0,1-18.21,40.57c-3.13,5-3.2,5,2.62,5.88,7.41,1.18,7.44,1.19,4,8-6.34,12.72-12.37,25.56-16.57,39.17-.31,1-1,2-.2,3.43,6.13-3.66,11.43-8.32,16.76-12.9a289.31,289.31,0,0,0,36.55-38.5c1.92-2.39,3.15-2.34,5-.27s4,3.62,5.29,6.05,2.3,1.71,3.78.1A177,177,0,0,1,913,177.47c3.49,5.19,4.93,11,6.41,16.85,1.33,5.22,1.21,5.27,6.17,3a191.51,191.51,0,0,1,30.06-11.13,82.76,82.76,0,0,1-3.17,15,86.18,86.18,0,0,1-6.08,16.55c-1.11,2.15-1.3,3.1,1.67,3.57,4.21.67,8.29,2.15,12.47,3.08,3.87.86,3.71,2.52,1.84,5.47a115.57,115.57,0,0,1-21.31,25.58c-2.15,1.88-2.52,2.76.13,4.55,10.22,6.91,10,6.86.83,15a254.94,254.94,0,0,1-30.25,23.38c-2.59,1.67-2.17,2.57-.08,4.27,3.43,2.8,6.56,6,9.88,8.91,2.33,2.06,2.32,3.65-.21,5.74a125.48,125.48,0,0,1-31.1,19c-3.17,1.35-3.89,2.33-.77,4.6s5.64,5.35,8.45,8,1.53,3.47-1.18,4.69c-9.22,4.15-18.9,6.7-28.76,8.65a6.06,6.06,0,0,0-3.07,1c.38,1.8,2,1.51,3.13,1.86a243.46,243.46,0,0,1,39.45,16.89c2.5,1.32,3,2.06.32,3.93-8.94,6.22-18.06,12.07-28.16,16.28-3.89,1.62-3.89,1.87-.62,4.56,15,12.38,27.58,27.05,38.89,42.82.37.52.6,1.13,1.33,2.51-7.23-1.05-13.77-1.85-20.26-3a243,243,0,0,1-24.76-5.19c-.86-.25-1.95-.75-2.7,0-1.05,1,.14,2,.49,2.86,2,5,4.13,9.87,6.3,14.77.95,2.14.32,2.48-1.81,2.22-12.25-1.49-24.47-3.11-36.59-5.47-.82-.16-1.83-1.14-2.56-.06s.26,1.78.74,2.55a88.24,88.24,0,0,1,8.44,18.17c.41,1.21,1.66,2.62.8,3.76s-2.52,0-3.7-.24a417.2,417.2,0,0,1-70.47-21.87c-4.49-1.84-5.47-1.24-5.49,3.58,0,6.8,3.4,12.28,7,17.64a65.53,65.53,0,0,0,5.67,7.31c1.24,1.38,1,2.08-.22,3.21q-6,5.38-11.8,11c-1.44,1.38-2.39,1.16-3.62-.26-9.87-11.39-15.82-24.48-17-39.55-.28-3.7-1.27-3.87-4.35-2.42-21.92,10.29-45,17-68.68,21.8-3.37.68-2.29-1-1.82-2.47a95.14,95.14,0,0,1,8.77-19.37c.53-.87,1.51-1.58,1-3.3A418.19,418.19,0,0,1,641,463.79c1.28-5.3,3.74-9.82,5.65-14.54.72-1.78,3-3.83,1.73-5.31s-3.78.24-5.65.69C629.05,448,615.15,450,600.57,452c3.47-6,7.47-10.79,11.36-15.65a200.36,200.36,0,0,1,29.88-30.42c2.74-2.22,1.23-2.66-.86-3.54a137.27,137.27,0,0,1-31.42-18.7c14.6-8.53,29.83-14.66,46.41-20.06-4.14-2.07-7.76-2.12-11.13-3A126.41,126.41,0,0,1,622,353c-2.11-1-2.23-1.74-.68-3.4,3-3.25,5.93-6.63,9.58-9.2,2.5-1.76,2.22-2.71-.51-3.85A128.78,128.78,0,0,1,598.25,317c-2.3-1.88-2.42-3-.29-4.89,3.4-3.05,6.25-6.71,10.08-9.26,2.75-1.84,2.53-3-.2-4.76a251.29,251.29,0,0,1-35.23-28c-2.78-2.59-2.58-4.11.38-6,.9-.56,1.67-1.34,2.53-2,5.67-4.37,5.71-4.41.62-9.16C567.82,245.16,561.35,236,555.35,226Z"/><path class="cls-3" d="M804.31,285.9c1-6.06,2.06-12.11,3-18.17.65-4.08,4.16-5.56,7.6-3.17,1.08.75.63,1.7.49,2.53-2.11,12.82-4.28,25.63-6.41,38.45-.18,1-.52,2-1.71,1.68-2-.61-4.62,0-5.56-2.92-2.07-6.51-4.33-13-6.52-19.43a8.71,8.71,0,0,0-1.83-3.42c-1,6-2.08,12-3,18-.45,3.11-.89,4.94-5.11,4.18-3.47-.62-3.38-2-3-4.46q2.57-15,5.1-30.09a28.81,28.81,0,0,1,1-5.12c.47-1.24-.81-3.7,2-3.54,2.35.14,4.68,0,5.67,3.17,2.32,7.52,5,14.93,7.53,22.39Z"/><path class="cls-3" d="M747.41,280.62c0-4.43-.08-8.87,0-13.3.12-5.07,3.26-8.32,8.24-8.54,3.48-.14,7-.14,10.48,0,4.76.2,8.11,3.45,8.19,8.18.15,9,.18,18,0,27-.09,5.33-4.34,8.76-10.13,8.38a38,38,0,0,0-6.4,0c-5.37.54-11-2.65-10.5-9.63C747.64,288.7,747.41,284.65,747.41,280.62Z"/><path class="cls-3" d="M867.69,283.09c5,2.26,11.19,4,15.37,9,2.05,2.46,1.68,5.53.24,8.34-4,7.85-8,15.72-12.15,23.51-2.29,4.31-6.56,5.67-10.91,3.6q-4.71-2.25-9.28-4.78c-4.9-2.72-6.12-6.87-3.58-11.87,3.7-7.27,7.49-14.49,11.14-21.79C860.28,285.6,862.9,283.47,867.69,283.09Z"/><path class="cls-3" d="M687.62,270c4.8,0,7.61,2.09,8.94,5.84,2.93,8.3,5.71,16.66,8.42,25,1.56,4.8-.45,8.72-5.28,10.53-3.25,1.21-6.56,2.26-9.86,3.33-4.41,1.43-8.49-.16-10.13-4.58q-5-13.33-9.2-26.91c-1.13-3.59.67-6.81,3.77-8.59C678.57,272.15,683.43,271,687.62,270Z"/><path class="cls-3" d="M724.84,261.32c6.61,0,9.89,2.68,10.73,7.63q1.11,6.53,2.14,13.06a7.19,7.19,0,0,1-3.49,7.57c-2.11,1.3-1.52,2.07-.42,3.52,1.86,2.44,3.47,5.08,5.31,7.55,1.21,1.62,1.4,2.24-1,2.75-3.54.75-6,.22-7.82-3.24-1.22-2.36-3.1-4.37-4.53-6.64-1-1.55-2.14-1.12-3.48-.8-2,.47-1,1.77-.87,2.83a38.68,38.68,0,0,0,1.06,5.91c1.16,3.63-.71,4.54-3.77,5.07-2.8.5-3.72-.54-4.12-3.18-1.8-11.76-3.73-23.5-5.67-35.24-.45-2.72-.34-4.42,3.27-4.7A127,127,0,0,0,724.84,261.32Z"/><path class="cls-3" d="M687.16,346.86c0,4.28-.16,8.56.05,12.82.16,3.27-2,2.51-3.74,2.46s-3.85,1-3.8-2.36c.13-11,.05-22,.05-33,0-1.23-.13-2.63,1.73-2.4s3.92-1,5,1.91c2.11,5.43,4.63,10.71,7.23,16.63,2.54-5.8,5-10.92,7-16.23,1.19-3.17,3.52-2.38,5.6-2.26,2.62.16,1.55,2.41,1.56,3.78.08,10.2-.11,20.41.13,30.61.09,3.57-1.72,3.39-4.19,3.45s-4-.21-3.83-3.37a55.44,55.44,0,0,0-.5-11.74c-1.78,3.92-3.55,7.85-5.73,12.66l-6-13Z"/><path class="cls-4" d="M728.31,199.14a130.88,130.88,0,0,0,29,24V212.34c0-7-.15-14,.12-21,.11-2.85-.55-4.87-2.87-6.48-4.69-3.25-8.08-7.81-11.82-12-.33-.37-.8-.79.31-1.82a79,79,0,0,0,13.7,12.69c1.29-.69,1.18-1.87,1.23-2.83.59-11.79,1.09-23.59,1.69-35.38a7.1,7.1,0,0,0-1.81-5.1c-3.64-4.51-7.34-9-9.44-14.69l11,13.14c1-13,.73-25.23,1.1-37.46.27-.41.51-.4.72,0,1,8,.92,16.07.94,24.12,0,11.41.59,22.83,0,34.25-.06,1.17,0,2.33,0,3.95,5.27-2.07,9.31-5.4,14-7.58a40.62,40.62,0,0,1-11.29,9,5,5,0,0,0-2.83,4.76c-.44,14-.82,27.93-.57,41.91.1,5,.5,10.09.79,15.67,10.37-6.91,18.9-15.16,27.22-23.64.85-.17,1.21.12,1,1a128.84,128.84,0,0,1-23.39,23.16c-4.08,3.12-5.67,6.32-4.67,11.16.44,2.14.45,4.16-2.78,3.84-1.28-.13-2-.66-2-2a19.31,19.31,0,0,1-.16-4.41c1.42-7.23-2.19-11.33-7.91-15.15-8.62-5.75-15.77-13.3-22.14-21.51C727.14,199.23,727.47,198.93,728.31,199.14Z"/><path class="cls-3" d="M829.51,373.54c1.61,0,3.23-.06,4.84,0,4.94.23,7.91,3.38,7.78,8.29,0,1.18.63,3.17-1.59,2.87-2-.28-4.5,1.51-5.88-1.39-1.09-2.28-8.3-3.68-9.71-1.74s-1.07,3.74,1.43,4.79c3.7,1.55,7.33,3.24,11,4.8a7.18,7.18,0,0,1,4.76,7.56c-.07,1.61,0,3.22,0,4.83-.13,4.39-2.82,7.51-7.09,7.76a94.83,94.83,0,0,1-11.68,0,7.11,7.11,0,0,1-6.39-4.79c-.76-1.91-1.61-4.4-.31-5.72,1.57-1.58,4.32-.52,6.56-.54a1.15,1.15,0,0,1,.87.64c1.27,5.87,5.82,2.28,8.82,2.92,1.21.26,1.66-1.41,1.78-2.7a3.51,3.51,0,0,0-2.15-3.92c-3.41-1.54-6.79-3.19-10.3-4.49-5.65-2.1-6.64-5.86-5.8-12.49.58-4.64,4-6.68,9.84-6.68Z"/><path class="cls-3" d="M770.32,411.27c-2.76.58-4.32-.18-4.5-3.08-.21-3.37-2.18-4.47-5.39-4a12.9,12.9,0,0,1-4,0c-2.36-.38-3.6.63-3.72,2.85-.18,3.6-2,4.52-5.43,4.46s-3.26-1.36-2.57-3.84c2.72-9.77,5.24-19.58,8-29.33.46-1.64-.07-4.35,2.26-4.68a38.14,38.14,0,0,1,8.8.12c1.23.12,1,1.78,1.3,2.72,2.86,10.29,5.5,20.63,8.45,30.89C774.54,411,773.74,412.16,770.32,411.27Z"/><path class="cls-4" d="M755,343.16c0-5.24.12-10.47-.06-15.7-.08-2.51.79-3.28,3.23-3.18,4.28.16,8.58,0,12.87.07a7.84,7.84,0,0,1,8,7.81c.12,3.62.1,7.25,0,10.87-.11,5-3,7.87-8,8.18-2.63.16-6.21-1.25-7.64.59s-.62,5.13-.5,7.78c.15,3.11-1.9,2.7-3.73,2.57s-4.28,1.06-4.21-2.49C755.1,354.16,755,348.66,755,343.16Z"/><path class="cls-3" d="M723.4,373.54c3.09,0,6.19.08,9.27,0,3.34-.1,2.18,2.34,2.27,4s.62,3.64-2.33,3.5c-3.63-.17-7.28.11-10.89-.13-2.93-.2-2.72,1.67-2.39,3.32s-1.76,4.77,2.32,4.61c1.48,0,3,0,4.44,0,4.33,0,5.67,1.92,4.49,6.16-.36,1.28-1.14,1.27-2.09,1.26a43.58,43.58,0,0,1-5.24,0c-3-.36-4.14.56-4.15,3.87s1,4.37,4.31,4c3.06-.31,6.18.08,9.27-.1s2.36,1.92,2.26,3.49,1.1,4-2.25,4q-9.48-.14-19,0c-2,0-2.48-.8-2.47-2.64.06-10.89.09-21.78,0-32.67,0-2.28.93-2.69,2.88-2.61C717.21,373.62,720.3,373.54,723.4,373.54Z"/><path class="cls-3" d="M741.46,362.07c-3.24,1-4.14-1.17-4.25-3.57-.23-5.06-3.92-3.18-6.49-3.45s-4.71-.37-5,3.33c-.29,3.48-4,5.05-7.38,3.78-1.43-.53-.88-1.46-.68-2.27q4.07-17,8.18-33.9a2.09,2.09,0,0,1,1.94-1.68c6.74-1.32,8.7-.05,10.35,6.67,2.21,8.95,4.4,17.91,6.79,26.81C745.79,361.1,745.65,363.07,741.46,362.07Z"/><path class="cls-4" d="M813.76,448.49a24.93,24.93,0,0,1-11.53-5.26c-6.76-5.21-14.84-6.35-22.69-8.3a46,46,0,0,0-11.6-.94c-8.06.07-14.6,2.9-19,10.5,1.24-6-3.6-6.37-6.77-7.91-7.22-3.51-14.49-3.07-21.64.45q-7.92,3.9-15.86,7.77c-1.15.56-2.25,1.39-4.06,1.19,2.89-3.39,7.06-4.46,10.57-7.51-9.18-1.61-17.76-.23-26.4.88,4.22-2.86,9.14-3,13.88-3.63a55.82,55.82,0,0,1,13.67-.05,10,10,0,0,0,6.53-1.25c9.63-5.69,19.26-4.55,28.6.65,2.43,1.35,3.57,1,5.68-.67,7.43-5.91,16.08-5.91,24.9-4.11,9.56,1.95,18.76,5.29,28.37,7.14,9.23,1.78,18.4,1,27.6.19.53-.05,1-.27,2,1-11.08,3-21.9,3.25-33.54,1.75,3.48,3.74,7.8,5,11.21,7.5.26.12.36.25.29.41S813.84,448.49,813.76,448.49Z"/><path class="cls-3" d="M820.27,343c0-5.25.09-10.49,0-15.73-.06-2.23.55-3.1,2.91-3,5.51.16,11,.18,16.54,0,3.69-.11,2.28,2.49,2.42,4.17s.68,3.6-2.35,3.32c-2.8-.26-5.67.18-8.46-.12-3.47-.38-3.51,1.48-3.54,4.09s.22,4.54,3.59,3.9a11.22,11.22,0,0,1,2,0c3.9,0,5.6,2.63,4.25,6.38-.38,1.07-1.09,1-1.88,1a27.08,27.08,0,0,1-4-.05c-3.25-.51-4,.91-4,4-.07,3.24.88,4.32,4.06,3.93,2.12-.25,4.34.23,6.44-.09,3.56-.53,4.17,1,4.09,4.19-.06,2.71-.86,3.4-3.45,3.3-5-.19-10-.28-14.92,0-3.23.2-3.8-1-3.68-3.9C820.43,353.25,820.27,348.14,820.27,343Z"/><path class="cls-3" d="M783.13,392.55c0-5.37.11-10.75,0-16.11-.07-2.29.64-3,2.94-2.95,6,.14,12.09.2,18.12,0,3.54-.13,2.53,2.2,2.63,4s.43,3.75-2.64,3.49-6.47.23-9.65-.13c-3.55-.41-3.42,1.51-3.49,4-.07,2.67.16,4.52,3.55,3.93,1.17-.2,2.45.16,3.61-.07,3.81-.73,4.44,1.1,4.32,4.43-.1,2.55-.92,3.09-3.3,3.1-8.14,0-8.14.1-8.11,8.47,0,.67,0,1.34,0,2,0,4.28-2.89,6.16-6.89,4.61-1.48-.57-1-1.72-1-2.69C783.11,403.29,783.13,397.92,783.13,392.55Z"/><path class="cls-3" d="M853.06,277.75c0,3.79-2.28,5.46-6,4.12a28.1,28.1,0,0,1-3-1.1c-1.88-.93-2.66-.35-3.3,1.62-3.14,9.63-6.68,19.14-9.57,28.85-1.21,4.07-3.24,1.76-5.13,1.49-2.44-.36-3.36-1.42-2.43-4.07,3.31-9.44,6.3-19,9.67-28.4.84-2.33.42-3.18-1.82-3.59-.91-.17-1.77-.66-2.69-.77-4.07-.51-4.08-2.69-2.76-5.85.83-2,1.59-2.56,3.8-1.76,6.91,2.49,13.93,4.66,20.88,7C851.63,275.67,853.27,275.58,853.06,277.75Z"/><path class="cls-3" d="M669.35,322.73c-.9,2.31-3.55,2.36-5.33,3.54s-1.92-.8-2.41-1.74C657,315.74,652.44,307,648,298.1c-1.17-2.36-2.21-3.52-4.62-1.48a10.67,10.67,0,0,1-2.11,1.14c-3.51,1.87-6.26.29-6.65-3.7-.12-1.3.76-1.58,1.56-2q10.35-5.35,20.71-10.67c3.59-1.84,2.86,2,4.06,3.25s1.36,2.62-.72,3.33a2.48,2.48,0,0,0-.37.17c-2.12,1.22-5.74,1.59-6,3.73s2,4.47,3.17,6.73l11.43,22.08C668.73,321.27,669,321.89,669.35,322.73Z"/><path class="cls-5" d="M797.54,339.73c0,3.9.13,7.81,0,11.7-.12,2.51.42,3.72,3.27,3.42,2.53-.27,5.12.13,7.65-.1s3,1.16,2.66,3.14c-.27,1.69,1.23,4.36-2.39,4.31q-8.26-.12-16.53,0c-1.95,0-2.54-.7-2.53-2.6.07-10.88.12-21.77,0-32.66,0-3.12,1.89-2.73,3.72-2.59s4.33-1.13,4.23,2.47C797.45,331.13,797.54,335.43,797.54,339.73Z"/><path class="cls-3" d="M679.73,392.46c0-5.37.22-10.75-.08-16.11-.19-3.46,1.91-2.75,3.83-2.82,2.11-.08,3.84-.26,3.74,3-.23,8.05,0,16.11-.12,24.16,0,2.5.42,3.69,3.24,3.38a62.43,62.43,0,0,1,7.24,0c3.68,0,5.56,3.1,4,6.46-.55,1.2-1.51.9-2.38.9-5.64,0-11.28-.08-16.91.07-2.28.06-2.64-.93-2.61-2.87C679.79,403.2,679.73,397.83,679.73,392.46Z"/><path class="cls-6" d="M606.35,249.89c5.69,1.35,11.41,2.48,18.16,1.59-6.64-6.52-12.83-12.62-19-18.72,4.24.79,6,4.83,9.73,6.58,1.29-3.09.61-6.29.66-9.43-.19-.84-.61-1.81.94-1.67a37.29,37.29,0,0,1,1.5,11.88c0,1-.5,2.18.45,3,6.2,5.64,12.42,11.27,19,17.19.66-5.8-1-10.77-2.92-15.71,1.42-.67,1.88.28,2.36,1.31a38.83,38.83,0,0,1,4,14.19c.15,2.11.13,4.28,1.82,6,.66.67,2.1,1.36.75,2.53a2.24,2.24,0,0,1-3.5-.28c-3.51-3.87-7.23-7.56-10.67-11.5a5.88,5.88,0,0,0-4.85-2.08,51.05,51.05,0,0,1-19.9-4.09C604.77,249.33,605.54,249.58,606.35,249.89Z"/><path class="cls-6" d="M898.55,228.24c.4,4.76-.58,9.61.74,14.75,6.59-5.28,11.92-11.37,18.29-16.3-8.22,10.64-18.28,19.52-27.79,29.47,6.91,1.13,13.15-.75,19.49-1.78-5.1,3.72-11.14,4.81-17,4.9-5.09.07-8.11,2.26-11.08,5.76-1.41,1.66-2.39,5.18-5.88,3-1.23-.77-1.19-.92,3.26-5.22,5.1-4.95,10.18-9.92,15.47-14.66a6.07,6.07,0,0,0,2.31-5.55,38.21,38.21,0,0,1,1.53-14.25C898,228,898.27,228,898.55,228.24Z"/><path class="cls-7" d="M790.46,205l-1-1,4-4.88C793.66,201.84,791.93,203.33,790.46,205Z"/><path class="cls-8" d="M606.35,249.89l-1.55.79-4.86-2.18A13.54,13.54,0,0,1,606.35,249.89Z"/><path class="cls-9" d="M616.81,228.24c-.95.2-.68,1.09-.94,1.67-1.16-1.24-.45-2.72-.6-4.26C616.75,226.07,616.74,227.18,616.81,228.24Z"/><path class="cls-10" d="M922.27,222.32c-1.52,1.84-2.13,3.16-4.33,3.58A7.43,7.43,0,0,1,922.27,222.32Z"/><path class="cls-11" d="M898.55,228.24l-.69.12c-.27-1.18-.19-2.22,1.12-2.84A1.91,1.91,0,0,1,898.55,228.24Z"/><path class="cls-12" d="M721.41,189.8c0,.7-.33,1-.72.86a2,2,0,0,1-.91-1,.49.49,0,0,1,.67-.6A3.81,3.81,0,0,1,721.41,189.8Z"/><path class="cls-13" d="M728.31,199.14l-.93,1c-.82-.6-2-1.59-1.19-2.31C727.21,196.86,727.87,198.21,728.31,199.14Z"/><path class="cls-14" d="M745.92,121.2c-.38.4-.66.84-.79.8a1.32,1.32,0,0,1-.77-.66c-.1-.25.11-.61.18-.93Z"/><path class="cls-15" d="M679.9,439.74c1,.17,2.34-1.32,2.75-.16s-1.24.8-2,1.06S679.58,440.49,679.9,439.74Z"/><path class="cls-16" d="M779.37,153.57a1.81,1.81,0,0,1-1.62,1.66s-.25-.5-.17-.66C777.92,153.86,778.41,153.31,779.37,153.57Z"/><path class="cls-17" d="M679.9,439.74c.24.3.48.6.73.89-.74.56-1.78,1.18-2.3.31C678,440.37,679.23,440,679.9,439.74Z"/><path class="cls-18" d="M813.76,448.49a2.39,2.39,0,0,1-.06-.65,2,2,0,0,1,2,.79c.47.49-.08.62-.36.68A1.54,1.54,0,0,1,813.76,448.49Z"/><path class="cls-19" d="M761.26,101.49a4.28,4.28,0,0,1-.72,0,5.5,5.5,0,0,1,.35-3.63C761.63,99.11,761.29,100.32,761.26,101.49Z"/><path class="cls-20" d="M766.34,280.59c0,3.48,0,7,0,10.45,0,4-2.84,3.49-5.38,3.48s-5.46.58-5.48-3.38c0-7.11,0-14.21,0-21.32,0-4.45,3.5-3.48,6.16-3.66,2.81-.18,4.73.67,4.67,4-.07,3.49,0,7,0,10.46Z"/><path class="cls-21" d="M862.08,319.81c-5.49-.27-8-4.38-5.54-9.18,2.73-5.37,5.61-10.67,8.24-16.09,1.77-3.65,4.22-3,7-1.53s5.21,2.78,3,6.69c-3.29,5.84-6.28,11.84-9.29,17.84A3.5,3.5,0,0,1,862.08,319.81Z"/><path class="cls-21" d="M679,283.72c.09-4.61,3.67-4.33,6.06-5.27,2.08-.81,3.88-.26,4.71,2.27,2.23,6.74,4.6,13.42,6.84,20.16.71,2.12-.07,3.9-2.24,4.41-2.53.6-6,3.55-7.58.15C683.54,298.29,681.39,290.66,679,283.72Z"/><path class="cls-22" d="M717.57,271.8c0-.31-.11-1.12.15-1.27,2.39-1.44,5.13-1.4,7.76-1.35,1.95,0,2.54,1.64,2.74,3.39a41.79,41.79,0,0,0,.95,6.34c1.08,4-.79,5.44-4.39,5.76a24,24,0,0,0-3.16.57c-1.18.26-2,.3-2.22-1.32C718.9,279.94,718.21,276,717.57,271.8Z"/><path class="cls-23" d="M758.78,383.06c2.31,4.54,2.48,8.71,3.84,12.5.11.32,0,1-.09,1.06a11.38,11.38,0,0,1-6.28.09c-1.35-.4-.31-2,0-3.08C757,390.44,757.75,387.25,758.78,383.06Z"/><path class="cls-24" d="M762.85,338v-2c0-2.33-.73-4.75,3.44-4.5,3.47.21,5.5.69,4.9,4.66a9.52,9.52,0,0,0,0,2.82c.54,3.65-.82,4.62-4.6,4.81C760.6,344.17,763.7,340,762.85,338Z"/><path class="cls-25" d="M731.81,334.76c.89,3.68,1.78,7.36,2.64,11.05.14.59.52,1.55-.35,1.67a19.83,19.83,0,0,1-5.16.1c-1.11-.14-.56-1.24-.4-1.95q1.26-5.42,2.53-10.83Z"/></g></g></svg>